<svg width="396" height="60" viewBox="0 0 396 60" fill="none" xmlns="http://www.w3.org/2000/svg">
<path d="M106.281 40.639V30.985C106.281 25.9893 102.24 21.9486 97.1881 21.9486H96.7948C94.8305 21.9486 92.8658 22.622 91.9118 23.8007V12.3504C91.9118 10.9464 90.8451 10.2177 89.7785 10.2177C88.7119 10.2177 87.6458 10.9469 87.6458 12.3504V47.6549C87.6458 49.0021 88.7124 49.6755 89.7785 49.6755C90.733 49.6755 91.687 49.1138 91.8554 47.9927C92.641 48.7778 94.2688 49.6755 96.6822 49.6755H97.1876C102.183 49.6755 106.281 45.6347 106.281 40.639ZM102.015 40.639C102.015 43.2772 99.8825 45.4104 97.1881 45.4104H96.6827C94.1571 45.4104 91.9122 43.7263 91.9122 40.976V30.536C91.9122 27.9537 94.1576 26.2141 96.6827 26.2141H97.1881C99.8825 26.2141 102.015 28.3473 102.015 30.985V40.639ZM124.186 47.5423C124.186 46.4761 123.512 45.4104 122.053 45.4104C120.313 45.3537 118.966 44.0069 118.966 42.2664V12.3504C118.966 10.9464 117.9 10.2177 116.833 10.2177C115.767 10.2177 114.7 10.9469 114.7 12.3504V42.2664C114.7 46.3635 117.956 49.6755 122.053 49.6755C123.512 49.6755 124.186 48.6089 124.186 47.5423ZM148.657 40.639V30.985C148.657 25.9893 144.617 21.9486 139.621 21.9486H139.06C134.064 21.9486 130.023 25.9893 130.023 30.985V40.639C130.023 45.6347 134.064 49.6755 139.06 49.6755H139.621C144.616 49.6755 148.657 45.6347 148.657 40.639ZM144.392 40.639C144.392 43.2772 142.259 45.4104 139.621 45.4104H139.116C136.422 45.4104 134.289 43.2772 134.289 40.639V30.985C134.289 28.3473 136.422 26.2141 139.06 26.2141H139.621C142.259 26.2141 144.392 28.3473 144.392 30.985V40.639ZM174.532 40.639C174.532 39.1801 173.466 38.4504 172.399 38.4504C171.39 38.4504 170.323 39.1801 170.267 40.639C170.155 43.2772 168.133 45.4104 165.496 45.4104H164.99C162.296 45.4104 160.164 43.2772 160.164 40.639V30.985C160.164 28.3473 162.296 26.2141 164.935 26.2141H165.495C168.133 26.2141 170.154 28.1784 170.266 31.0409C170.322 32.4449 171.389 33.1183 172.399 33.1183C173.466 33.1183 174.532 32.3881 174.532 30.985C174.532 25.9893 170.435 21.9486 165.495 21.9486H164.934C159.995 21.9486 155.897 25.9335 155.897 30.985V40.639C155.897 45.6347 159.938 49.6755 164.934 49.6755H165.495C170.491 49.6755 174.532 45.6347 174.532 40.639ZM201.417 47.5423C201.417 47.2058 201.361 46.8135 201.137 46.4761L193.447 33.0052L200.407 25.5966C200.857 25.1475 201.025 24.6426 201.025 24.1372C201.025 23.0138 200.07 21.9481 198.836 21.9481C198.331 21.9481 197.769 22.172 197.32 22.6778L186.655 34.0155V12.3504C186.655 10.9464 185.589 10.2177 184.522 10.2177C183.456 10.2177 182.389 10.9469 182.389 12.3504V47.5423C182.389 48.9458 183.456 49.6755 184.522 49.6755C185.589 49.6755 186.655 48.9458 186.655 47.5423V40.3012L190.416 36.2604L197.432 48.5521C197.881 49.339 198.554 49.6755 199.228 49.6755C200.52 49.6755 201.417 48.6647 201.417 47.5423ZM225.664 40.639C225.664 39.1801 224.597 38.4504 223.531 38.4504C222.521 38.4504 221.454 39.1801 221.398 40.639C221.286 43.2772 219.265 45.4104 216.628 45.4104H216.121C213.427 45.4104 211.295 43.2772 211.295 40.639V30.985C211.295 28.3473 213.427 26.2141 216.066 26.2141H216.628C219.265 26.2141 221.286 28.1784 221.398 31.0409C221.454 32.4449 222.522 33.1183 223.531 33.1183C224.598 33.1183 225.664 32.3881 225.664 30.985C225.664 25.9893 221.567 21.9486 216.628 21.9486H216.066C211.127 21.9486 207.03 25.9335 207.03 30.985V40.639C207.03 45.6347 211.071 49.6755 216.066 49.6755H216.628C221.623 49.6755 225.664 45.6347 225.664 40.639ZM252.157 47.5423V30.985C252.157 25.9893 248.115 21.9486 243.119 21.9486H242.671C240.706 21.9486 238.741 22.622 237.786 23.6323V12.3504C237.786 10.9464 236.72 10.2177 235.655 10.2177C234.588 10.2177 233.522 10.9469 233.522 12.3504V47.5423C233.522 48.9458 234.589 49.6755 235.655 49.6755C236.721 49.6755 237.786 48.9458 237.786 47.5423V30.7044C237.786 27.7852 240.313 26.2141 242.896 26.2141C245.365 26.2141 247.89 27.7298 247.89 30.985V47.5423C247.89 48.9458 248.957 49.6755 250.023 49.6755C251.09 49.6755 252.157 48.9458 252.157 47.5423ZM280.22 47.4878C280.22 46.5887 279.659 45.6906 278.424 45.4663C277.414 45.2983 276.965 44.6235 276.965 43.6137V30.5913C276.965 25.7646 273.148 21.9481 268.153 21.9481H267.759C264.785 21.9481 261.192 23.1269 259.396 27.1681C259.228 27.5046 259.171 27.841 259.171 28.1784C259.171 29.3572 260.239 30.1427 261.305 30.1427C262.035 30.1427 262.764 29.8063 263.213 29.0198C264.28 27.1677 265.459 26.2137 267.76 26.2137H268.153C270.623 26.2137 272.699 27.4487 272.699 30.7593C272.699 31.0404 272.699 31.4895 272.532 31.7138C271.185 33.6227 258.724 32.0503 258.331 40.9187V41.5921C258.331 46.813 262.821 49.675 267.367 49.675H267.873C270.174 49.675 272.307 48.8332 273.935 47.431C274.664 48.4972 275.843 49.339 277.751 49.6192C277.864 49.675 278.032 49.675 278.145 49.675C279.491 49.6755 280.22 48.6089 280.22 47.4878ZM272.699 40.639C272.699 43.2772 270.51 45.4104 267.872 45.4104H267.367C264.505 45.4104 262.596 43.8947 262.596 41.4809V41.0313C262.764 37.1023 268.546 37.3275 272.699 36.205V40.639ZM291.221 47.5423V24.0813C291.221 22.6778 290.154 21.9486 289.088 21.9486C288.023 21.9486 286.956 22.6783 286.956 24.0813V47.5423C286.956 48.9458 288.023 49.6755 289.088 49.6755C290.154 49.6755 291.221 48.9458 291.221 47.5423ZM318.835 47.5423V30.985C318.835 24.8106 314.626 21.9486 309.855 21.9486H309.35C307.385 21.9486 305.533 22.622 304.523 23.6323C304.299 22.5089 303.343 21.9486 302.39 21.9486C301.267 21.9486 300.201 22.7341 300.201 24.0813V47.5423C300.201 48.9458 301.267 49.6755 302.334 49.6755C303.401 49.6755 304.467 48.9458 304.467 47.5423V30.985C304.467 28.3473 306.656 26.2141 309.293 26.2141H309.799C312.493 26.2141 314.626 28.3473 314.626 30.985V47.5423C314.626 48.9458 315.693 49.6755 316.759 49.6755C317.826 49.6755 318.835 48.9458 318.835 47.5423ZM340.861 47.5423V24.0813C340.861 22.6778 339.795 21.9486 338.728 21.9486C337.663 21.9486 336.596 22.6783 336.596 24.0813V47.5423C336.596 48.9458 337.663 49.6755 338.728 49.6755C339.795 49.6755 340.861 48.9458 340.861 47.5423ZM367.858 40.639V30.985C367.858 25.9893 363.817 21.9486 358.822 21.9486H358.261C353.265 21.9486 349.225 25.9893 349.225 30.985V40.639C349.225 45.6347 353.265 49.6755 358.261 49.6755H358.822C363.817 49.6755 367.858 45.6347 367.858 40.639ZM363.593 40.639C363.593 43.2772 361.46 45.4104 358.822 45.4104H358.317C355.621 45.4104 353.49 43.2772 353.49 40.639V30.985C353.49 28.3473 355.621 26.2141 358.261 26.2141H358.822C361.46 26.2141 363.593 28.3473 363.593 30.985V40.639Z" fill="white" fill-opacity="0.5"/>
<path d="M45.3801 28.5767C44.0804 28.5767 43.0234 29.634 43.0234 30.9333C43.0234 32.2325 44.0808 33.2894 45.3801 33.2894C46.6793 33.2894 47.7371 32.2325 47.7371 30.9333C47.7371 29.634 46.6797 28.5767 45.3801 28.5767Z" fill="white" fill-opacity="0.5"/>
<path d="M56.2766 22.038C54.9769 22.038 53.9209 23.0953 53.9209 24.3946C53.9209 25.6943 54.9774 26.7507 56.2766 26.7507C57.5758 26.7507 58.6341 25.6938 58.6341 24.3946C58.6346 23.0953 57.5763 22.038 56.2766 22.038Z" fill="white" fill-opacity="0.5"/>
<path d="M67.1735 15.5004C65.8743 15.5004 64.8169 16.5573 64.8169 17.8565C64.8169 19.1562 65.8743 20.2145 67.1735 20.2145C68.4737 20.2145 69.5301 19.1567 69.5301 17.8565C69.5301 16.5573 68.4737 15.5004 67.1735 15.5004Z" fill="white" fill-opacity="0.5"/>
<path d="M34.4828 8.96167C33.1836 8.96167 32.1262 10.0191 32.1262 11.3187C32.1262 12.618 33.1836 13.6749 34.4828 13.6749C35.7825 13.6749 36.8399 12.618 36.8399 11.3187C36.8399 10.0191 35.783 8.96167 34.4828 8.96167Z" fill="white" fill-opacity="0.5"/>
<path d="M45.3803 2.42358C44.0806 2.42358 43.0237 3.48143 43.0237 4.78066C43.0237 6.08035 44.0811 7.13774 45.3803 7.13774C46.6795 7.13774 47.7374 6.08035 47.7374 4.78066C47.7374 3.48143 46.68 2.42358 45.3803 2.42358Z" fill="white" fill-opacity="0.5"/>
<path d="M45.3801 15.5004C44.0804 15.5004 43.0234 16.5573 43.0234 17.8565C43.0234 19.1562 44.0808 20.2145 45.3801 20.2145C46.6793 20.2145 47.7371 19.1567 47.7371 17.8565C47.7371 16.5573 46.6797 15.5004 45.3801 15.5004Z" fill="white" fill-opacity="0.5"/>
<path d="M56.2766 8.96167C54.9769 8.96167 53.9209 10.0191 53.9209 11.3187C53.9209 12.618 54.9774 13.6749 56.2766 13.6749C57.5758 13.6749 58.6341 12.618 58.6341 11.3187C58.6346 10.0191 57.5763 8.96167 56.2766 8.96167Z" fill="white" fill-opacity="0.5"/>
<path d="M56.2766 35.1147C54.9769 35.1147 53.9209 36.1717 53.9209 37.4704C53.9209 38.7701 54.9774 39.8271 56.2766 39.8271C57.5758 39.8271 58.6341 38.7701 58.6341 37.4704C58.6346 36.1717 57.5763 35.1147 56.2766 35.1147Z" fill="white" fill-opacity="0.5"/>
<path d="M67.1735 28.5767C65.8743 28.5767 64.8169 29.634 64.8169 30.9333C64.8169 32.2325 65.8743 33.2894 67.1735 33.2894C68.4737 33.2894 69.5301 32.2325 69.5301 30.9333C69.5301 29.634 68.4737 28.5767 67.1735 28.5767Z" fill="white" fill-opacity="0.5"/>
<path d="M56.2766 48.1907C54.9769 48.1907 53.9209 49.2476 53.9209 50.5473C53.9209 51.8465 54.9774 52.9034 56.2766 52.9034C57.5758 52.9034 58.6341 51.8465 58.6341 50.5473C58.6346 49.2476 57.5763 48.1907 56.2766 48.1907Z" fill="white" fill-opacity="0.5"/>
<path d="M67.1735 41.6526C65.8743 41.6526 64.8169 42.7095 64.8169 44.0092C64.8169 45.3084 65.8743 46.3654 67.1735 46.3654C68.4737 46.3654 69.5301 45.3084 69.5301 44.0092C69.5301 42.7095 68.4737 41.6526 67.1735 41.6526Z" fill="white" fill-opacity="0.5"/>
<path d="M45.3801 54.7288C44.0804 54.7288 43.0234 55.7861 43.0234 57.0854C43.0234 58.3841 44.0808 59.4415 45.3801 59.4415C46.6793 59.4415 47.7371 58.3841 47.7371 57.0854C47.7371 55.7861 46.6797 54.7288 45.3801 54.7288Z" fill="white" fill-opacity="0.5"/>
<path d="M45.3801 41.6526C44.0804 41.6526 43.0234 42.7095 43.0234 44.0092C43.0234 45.3084 44.0808 46.3654 45.3801 46.3654C46.6793 46.3654 47.7371 45.3084 47.7371 44.0092C47.7371 42.7095 46.6797 41.6526 45.3801 41.6526Z" fill="white" fill-opacity="0.5"/>
<path d="M34.4828 22.038C33.1836 22.038 32.1262 23.0953 32.1262 24.3946C32.1262 25.6943 33.1836 26.7507 34.4828 26.7507C35.7825 26.7507 36.8399 25.6938 36.8399 24.3946C36.8399 23.0953 35.783 22.038 34.4828 22.038Z" fill="white" fill-opacity="0.5"/>
<path d="M34.4828 48.1907C33.1836 48.1907 32.1262 49.2476 32.1262 50.5473C32.1262 51.8465 33.1836 52.9034 34.4828 52.9034C35.7825 52.9034 36.8399 51.8465 36.8399 50.5473C36.8399 49.2476 35.783 48.1907 34.4828 48.1907Z" fill="white" fill-opacity="0.5"/>
<path d="M34.4828 35.1147C33.1836 35.1147 32.1262 36.1717 32.1262 37.4704C32.1262 38.7701 33.1836 39.8271 34.4828 39.8271C35.7825 39.8271 36.8399 38.7701 36.8399 37.4704C36.8399 36.1717 35.783 35.1147 34.4828 35.1147Z" fill="white" fill-opacity="0.5"/>
<path d="M23.5864 15.5004C22.2867 15.5004 21.2302 16.5573 21.2302 17.8565C21.2302 19.1562 22.2871 20.2145 23.5864 20.2145C24.8856 20.2145 25.9435 19.1567 25.9435 17.8565C25.9435 16.5573 24.8856 15.5004 23.5864 15.5004Z" fill="white" fill-opacity="0.5"/>
<path d="M23.5864 41.6526C22.2867 41.6526 21.2302 42.7095 21.2302 44.0092C21.2302 45.3084 22.2871 46.3654 23.5864 46.3654C24.8856 46.3654 25.9435 45.3084 25.9435 44.0092C25.9435 42.7095 24.8856 41.6526 23.5864 41.6526Z" fill="white" fill-opacity="0.5"/>
<path d="M23.5864 28.5767C22.2867 28.5767 21.2302 29.634 21.2302 30.9333C21.2302 32.2325 22.2871 33.2894 23.5864 33.2894C24.8856 33.2894 25.9435 32.2325 25.9435 30.9333C25.9435 29.634 24.8856 28.5767 23.5864 28.5767Z" fill="white" fill-opacity="0.5"/>
<path d="M289.053 10.1003C287.871 10.1003 286.908 11.0617 286.908 12.2442C286.908 13.4266 287.871 14.3885 289.053 14.3885C290.235 14.3885 291.197 13.4266 291.197 12.2442C291.197 11.0617 290.236 10.1003 289.053 10.1003Z" fill="white" fill-opacity="0.5"/>
<path d="M338.71 10.1003C337.528 10.1003 336.565 11.0617 336.565 12.2442C336.565 13.4266 337.528 14.3885 338.71 14.3885C339.893 14.3885 340.854 13.4266 340.854 12.2442C340.855 11.0617 339.893 10.1003 338.71 10.1003Z" fill="white" fill-opacity="0.5"/>
<path d="M327.461 45.5636C326.286 45.5636 325.328 46.5199 325.328 47.6959C325.328 48.8719 326.286 49.8291 327.461 49.8291C328.638 49.8291 329.594 48.8719 329.594 47.6959C329.594 46.5199 328.638 45.5636 327.461 45.5636Z" fill="white" fill-opacity="0.5"/>
</svg>
