<svg width="131" height="26" viewBox="0 0 131 26" fill="none" xmlns="http://www.w3.org/2000/svg">
<path d="M13.925 7.1C13.925 8.11667 13.6917 9.05 13.225 9.9C12.7584 10.7333 12.0417 11.4083 11.075 11.925C10.1084 12.4417 8.90838 12.7 7.47505 12.7H4.82505V19H0.550049V1.45H7.47505C8.87505 1.45 10.0584 1.69167 11.025 2.175C11.9917 2.65833 12.7167 3.325 13.2 4.175C13.6834 5.025 13.925 6 13.925 7.1ZM7.15005 9.3C7.96672 9.3 8.57505 9.10833 8.97505 8.725C9.37505 8.34167 9.57505 7.8 9.57505 7.1C9.57505 6.4 9.37505 5.85833 8.97505 5.475C8.57505 5.09167 7.96672 4.9 7.15005 4.9H4.82505V9.3H7.15005Z" fill="white"/>
<path d="M21.8256 19.2C20.609 19.2 19.5256 18.9917 18.5756 18.575C17.6256 18.1583 16.8756 17.5917 16.3256 16.875C15.7756 16.1417 15.4673 15.325 15.4006 14.425H19.6256C19.6756 14.9083 19.9006 15.3 20.3006 15.6C20.7006 15.9 21.1923 16.05 21.7756 16.05C22.309 16.05 22.7173 15.95 23.0006 15.75C23.3006 15.5333 23.4506 15.2583 23.4506 14.925C23.4506 14.525 23.2423 14.2333 22.8256 14.05C22.409 13.85 21.734 13.6333 20.8006 13.4C19.8006 13.1667 18.9673 12.925 18.3006 12.675C17.634 12.4083 17.059 12 16.5756 11.45C16.0923 10.8833 15.8506 10.125 15.8506 9.175C15.8506 8.375 16.0673 7.65 16.5006 7C16.9506 6.33333 17.6006 5.80833 18.4506 5.425C19.3173 5.04167 20.3423 4.85 21.5256 4.85C23.2756 4.85 24.6506 5.28333 25.6506 6.15C26.6673 7.01667 27.2506 8.16667 27.4006 9.6H23.4506C23.384 9.11667 23.1673 8.73333 22.8006 8.45C22.4506 8.16667 21.984 8.025 21.4006 8.025C20.9006 8.025 20.5173 8.125 20.2506 8.325C19.984 8.50833 19.8506 8.76667 19.8506 9.1C19.8506 9.5 20.059 9.8 20.4756 10C20.909 10.2 21.5756 10.4 22.4756 10.6C23.509 10.8667 24.3506 11.1333 25.0006 11.4C25.6506 11.65 26.2173 12.0667 26.7006 12.65C27.2006 13.2167 27.459 13.9833 27.4756 14.95C27.4756 15.7667 27.2423 16.5 26.7756 17.15C26.3256 17.7833 25.6673 18.2833 24.8006 18.65C23.9506 19.0167 22.959 19.2 21.8256 19.2Z" fill="white"/>
<path d="M44.3411 5.05L35.5911 25.625H30.9911L34.1911 18.525L28.5161 5.05H33.2911L36.5161 13.775L39.7161 5.05H44.3411Z" fill="white"/>
<path d="M45.037 12.025C45.037 10.575 45.3286 9.30833 45.912 8.225C46.512 7.14167 47.337 6.30833 48.387 5.725C49.4536 5.14167 50.6703 4.85 52.037 4.85C53.787 4.85 55.2453 5.30833 56.412 6.225C57.5953 7.14167 58.3703 8.43333 58.737 10.1H54.187C53.8036 9.03333 53.062 8.5 51.962 8.5C51.1786 8.5 50.5536 8.80833 50.087 9.425C49.6203 10.025 49.387 10.8917 49.387 12.025C49.387 13.1583 49.6203 14.0333 50.087 14.65C50.5536 15.25 51.1786 15.55 51.962 15.55C53.062 15.55 53.8036 15.0167 54.187 13.95H58.737C58.3703 15.5833 57.5953 16.8667 56.412 17.8C55.2286 18.7333 53.7703 19.2 52.037 19.2C50.6703 19.2 49.4536 18.9083 48.387 18.325C47.337 17.7417 46.512 16.9083 45.912 15.825C45.3286 14.7417 45.037 13.475 45.037 12.025Z" fill="white"/>
<path d="M69.5987 4.9C71.1987 4.9 72.482 5.43333 73.4487 6.5C74.4153 7.55 74.8987 9 74.8987 10.85V19H70.6487V11.425C70.6487 10.4917 70.407 9.76667 69.9237 9.25C69.4403 8.73333 68.7903 8.475 67.9737 8.475C67.157 8.475 66.507 8.73333 66.0237 9.25C65.5403 9.76667 65.2987 10.4917 65.2987 11.425V19H61.0237V0.5H65.2987V6.925C65.732 6.30833 66.3237 5.81667 67.0737 5.45C67.8237 5.08333 68.6653 4.9 69.5987 4.9Z" fill="white"/>
<path d="M84.2194 19.2C82.8527 19.2 81.6194 18.9083 80.5194 18.325C79.436 17.7417 78.5777 16.9083 77.9444 15.825C77.3277 14.7417 77.0194 13.475 77.0194 12.025C77.0194 10.5917 77.336 9.33333 77.9694 8.25C78.6027 7.15 79.4694 6.30833 80.5694 5.725C81.6694 5.14167 82.9027 4.85 84.2694 4.85C85.636 4.85 86.8694 5.14167 87.9694 5.725C89.0694 6.30833 89.936 7.15 90.5694 8.25C91.2027 9.33333 91.5194 10.5917 91.5194 12.025C91.5194 13.4583 91.1944 14.725 90.5444 15.825C89.911 16.9083 89.036 17.7417 87.9194 18.325C86.8194 18.9083 85.5861 19.2 84.2194 19.2ZM84.2194 15.5C85.036 15.5 85.7277 15.2 86.2944 14.6C86.8777 14 87.1694 13.1417 87.1694 12.025C87.1694 10.9083 86.886 10.05 86.3194 9.45C85.7694 8.85 85.086 8.55 84.2694 8.55C83.436 8.55 82.7444 8.85 82.1944 9.45C81.6444 10.0333 81.3694 10.8917 81.3694 12.025C81.3694 13.1417 81.636 14 82.1694 14.6C82.7194 15.2 83.4027 15.5 84.2194 15.5Z" fill="white"/>
<path d="M104.475 15.9H97.925L96.875 19H92.4L98.75 1.44995H103.7L110.05 19H105.525L104.475 15.9ZM103.375 12.6L101.2 6.17495L99.05 12.6H103.375Z" fill="url(#paint0_linear_57_54)"/>
<path d="M116.258 7.37495C116.758 6.60828 117.383 6.00828 118.133 5.57495C118.883 5.12495 119.716 4.89995 120.633 4.89995V9.42495H119.458C118.391 9.42495 117.591 9.65828 117.058 10.125C116.524 10.575 116.258 11.375 116.258 12.525V19H111.983V5.04995H116.258V7.37495Z" fill="url(#paint1_linear_57_54)"/>
<path d="M130.451 15.375V19H128.276C126.726 19 125.518 18.625 124.651 17.875C123.784 17.1083 123.351 15.8666 123.351 14.15V8.59995H121.651V5.04995H123.351V1.64995H127.626V5.04995H130.426V8.59995H127.626V14.2C127.626 14.6166 127.726 14.9166 127.926 15.1C128.126 15.2833 128.459 15.375 128.926 15.375H130.451Z" fill="url(#paint2_linear_57_54)"/>
<defs>
<linearGradient id="paint0_linear_57_54" x1="124.743" y1="1.44995" x2="117.493" y2="24.7389" gradientUnits="userSpaceOnUse">
<stop stop-color="#B75CFF"/>
<stop offset="1" stop-color="#671AE4"/>
</linearGradient>
<linearGradient id="paint1_linear_57_54" x1="124.743" y1="1.44995" x2="117.493" y2="24.7389" gradientUnits="userSpaceOnUse">
<stop stop-color="#B75CFF"/>
<stop offset="1" stop-color="#671AE4"/>
</linearGradient>
<linearGradient id="paint2_linear_57_54" x1="124.743" y1="1.44995" x2="117.493" y2="24.7389" gradientUnits="userSpaceOnUse">
<stop stop-color="#B75CFF"/>
<stop offset="1" stop-color="#671AE4"/>
</linearGradient>
</defs>
</svg>
